<?xml version="1.0" encoding="us-ascii" standalone="no"?><svg xmlns="http://www.w3.org/2000/svg" xmlns:xlink="http://www.w3.org/1999/xlink" contentStyleType="text/css" height="876px" preserveAspectRatio="none" style="width:948px;height:876px;background:#FFFFFF;" version="1.1" viewBox="0 0 948 876" width="948px" zoomAndPan="magnify"><defs/><g><text fill="#000000" font-family="sans-serif" font-size="14" font-weight="bold" lengthAdjust="spacing" textLength="364" x="285.25" y="22.9951">Hibernate hexagonal architecture proposal 4</text><!--cluster Adapters--><g id="cluster_Adapters"><rect fill="#FAFAD2" height="826.5" rx="2.5" ry="2.5" style="stroke:#181818;stroke-width:1.0;" width="816" x="7" y="44.2969"/><text fill="#000000" font-family="sans-serif" font-size="14" font-weight="bold" lengthAdjust="spacing" textLength="74" x="378" y="59.292">Adapters</text></g><!--cluster Business side / Ports--><g id="cluster_Business side / Ports"><rect fill="#FFCC00" height="569.5" rx="2.5" ry="2.5" style="stroke:#181818;stroke-width:1.0;" width="768" x="31" y="182.2969"/><text fill="#000000" font-family="sans-serif" font-size="14" font-weight="bold" lengthAdjust="spacing" textLength="169" x="330.5" y="197.292">Business side / Ports</text></g><!--cluster Business side / Core--><g id="cluster_Business side / Core"><rect fill="#FF8800" height="91" rx="2.5" ry="2.5" style="stroke:#181818;stroke-width:1.0;" width="177" x="527" y="459.2969"/><text fill="#000000" font-family="sans-serif" font-size="14" font-weight="bold" lengthAdjust="spacing" textLength="161" x="535" y="474.292">Business side / Core</text></g><!--class CLI--><g id="elem_CLI"><rect codeLine="10" fill="#F1F1F1" height="40.2656" id="CLI" rx="2.5" ry="2.5" style="stroke:#181818;stroke-width:0.5;" width="89" x="567.5" y="79.2969"/><ellipse cx="582.5" cy="99.4297" fill="#FAFAD2" rx="11" ry="11" style="stroke:#181818;stroke-width:1.0;"/><path d="M584.5781,101.2422 L584.9688,102.2266 L584.5781,102.2266 C584.125,102.2266 584.0156,102.2422 583.8594,102.3516 C583.6094,102.5078 583.4531,102.7891 583.4531,103.0859 C583.4531,103.3516 583.5938,103.6016 583.8125,103.7578 C583.9531,103.8828 584.1563,103.9297 584.5781,103.9297 L586.9375,103.9297 C587.2969,103.9297 587.5156,103.8984 587.6563,103.8047 C587.9063,103.6641 588.0625,103.3672 588.0625,103.0859 C588.0625,102.8047 587.9219,102.5547 587.7031,102.3984 C587.5313,102.2578 587.375,102.2266 586.9063,102.2266 L583.5156,94.0234 L579.8438,94.0234 C579.3906,94.0234 579.2656,94.0391 579.1094,94.1328 C578.8594,94.3047 578.7031,94.5859 578.7031,94.8672 C578.7031,95.1484 578.8438,95.3984 579.0625,95.5703 C579.2344,95.6797 579.4063,95.7109 579.8438,95.7109 L580.9219,95.7109 L578.2813,102.2266 C577.8594,102.2266 577.7031,102.2422 577.5469,102.3516 C577.2969,102.5078 577.1406,102.7891 577.1406,103.0859 C577.1406,103.6484 577.5156,103.9297 578.2656,103.9297 L580.5313,103.9297 C580.8906,103.9297 581.1094,103.8984 581.2344,103.8047 C581.5,103.6641 581.6406,103.3672 581.6406,103.0859 C581.6406,102.8047 581.5156,102.5547 581.2969,102.3828 C581.125,102.2578 580.9844,102.2266 580.5313,102.2266 L580.1406,102.2266 L580.5313,101.2422 L584.5781,101.2422 Z M583.875,99.5391 L581.2031,99.5391 L582.5469,96.2734 L583.875,99.5391 Z " fill="#000000"/><text fill="#000000" font-family="sans-serif" font-size="12" font-style="italic" lengthAdjust="spacing" textLength="61" x="594.5" y="95.4355">&#171;adapter&#187;</text><text fill="#000000" font-family="sans-serif" font-size="14" lengthAdjust="spacing" textLength="22" x="614" y="111.2607">CLI</text></g><!--class LocalUnixStorage--><g id="elem_LocalUnixStorage"><rect codeLine="44" fill="#F1F1F1" height="40.2656" id="LocalUnixStorage" rx="2.5" ry="2.5" style="stroke:#181818;stroke-width:0.5;" width="156" x="539" y="814.7969"/><ellipse cx="554" cy="834.9297" fill="#FAFAD2" rx="11" ry="11" style="stroke:#181818;stroke-width:1.0;"/><path d="M556.0781,836.7422 L556.4688,837.7266 L556.0781,837.7266 C555.625,837.7266 555.5156,837.7422 555.3594,837.8516 C555.1094,838.0078 554.9531,838.2891 554.9531,838.5859 C554.9531,838.8516 555.0938,839.1016 555.3125,839.2578 C555.4531,839.3828 555.6563,839.4297 556.0781,839.4297 L558.4375,839.4297 C558.7969,839.4297 559.0156,839.3984 559.1563,839.3047 C559.4063,839.1641 559.5625,838.8672 559.5625,838.5859 C559.5625,838.3047 559.4219,838.0547 559.2031,837.8984 C559.0313,837.7578 558.875,837.7266 558.4063,837.7266 L555.0156,829.5234 L551.3438,829.5234 C550.8906,829.5234 550.7656,829.5391 550.6094,829.6328 C550.3594,829.8047 550.2031,830.0859 550.2031,830.3672 C550.2031,830.6484 550.3438,830.8984 550.5625,831.0703 C550.7344,831.1797 550.9063,831.2109 551.3438,831.2109 L552.4219,831.2109 L549.7813,837.7266 C549.3594,837.7266 549.2031,837.7422 549.0469,837.8516 C548.7969,838.0078 548.6406,838.2891 548.6406,838.5859 C548.6406,839.1484 549.0156,839.4297 549.7656,839.4297 L552.0313,839.4297 C552.3906,839.4297 552.6094,839.3984 552.7344,839.3047 C553,839.1641 553.1406,838.8672 553.1406,838.5859 C553.1406,838.3047 553.0156,838.0547 552.7969,837.8828 C552.625,837.7578 552.4844,837.7266 552.0313,837.7266 L551.6406,837.7266 L552.0313,836.7422 L556.0781,836.7422 Z M555.375,835.0391 L552.7031,835.0391 L554.0469,831.7734 L555.375,835.0391 Z " fill="#000000"/><text fill="#000000" font-family="sans-serif" font-size="12" font-style="italic" lengthAdjust="spacing" textLength="61" x="599.5" y="830.9355">&#171;adapter&#187;</text><text fill="#000000" font-family="sans-serif" font-size="14" lengthAdjust="spacing" textLength="124" x="568" y="846.7607">LocalUnixStorage</text></g><!--class S3Storage--><g id="elem_S3Storage"><rect codeLine="45" fill="#F1F1F1" height="40.2656" id="S3Storage" rx="2.5" ry="2.5" style="stroke:#181818;stroke-width:0.5;" width="107" x="170.5" y="814.7969"/><ellipse cx="185.5" cy="834.9297" fill="#FAFAD2" rx="11" ry="11" style="stroke:#181818;stroke-width:1.0;"/><path d="M187.5781,836.7422 L187.9688,837.7266 L187.5781,837.7266 C187.125,837.7266 187.0156,837.7422 186.8594,837.8516 C186.6094,838.0078 186.4531,838.2891 186.4531,838.5859 C186.4531,838.8516 186.5938,839.1016 186.8125,839.2578 C186.9531,839.3828 187.1563,839.4297 187.5781,839.4297 L189.9375,839.4297 C190.2969,839.4297 190.5156,839.3984 190.6563,839.3047 C190.9063,839.1641 191.0625,838.8672 191.0625,838.5859 C191.0625,838.3047 190.9219,838.0547 190.7031,837.8984 C190.5313,837.7578 190.375,837.7266 189.9063,837.7266 L186.5156,829.5234 L182.8438,829.5234 C182.3906,829.5234 182.2656,829.5391 182.1094,829.6328 C181.8594,829.8047 181.7031,830.0859 181.7031,830.3672 C181.7031,830.6484 181.8438,830.8984 182.0625,831.0703 C182.2344,831.1797 182.4063,831.2109 182.8438,831.2109 L183.9219,831.2109 L181.2813,837.7266 C180.8594,837.7266 180.7031,837.7422 180.5469,837.8516 C180.2969,838.0078 180.1406,838.2891 180.1406,838.5859 C180.1406,839.1484 180.5156,839.4297 181.2656,839.4297 L183.5313,839.4297 C183.8906,839.4297 184.1094,839.3984 184.2344,839.3047 C184.5,839.1641 184.6406,838.8672 184.6406,838.5859 C184.6406,838.3047 184.5156,838.0547 184.2969,837.8828 C184.125,837.7578 183.9844,837.7266 183.5313,837.7266 L183.1406,837.7266 L183.5313,836.7422 L187.5781,836.7422 Z M186.875,835.0391 L184.2031,835.0391 L185.5469,831.7734 L186.875,835.0391 Z " fill="#000000"/><text fill="#000000" font-family="sans-serif" font-size="12" font-style="italic" lengthAdjust="spacing" textLength="61" x="206.5" y="830.9355">&#171;adapter&#187;</text><text fill="#000000" font-family="sans-serif" font-size="14" lengthAdjust="spacing" textLength="75" x="199.5" y="846.7607">S3Storage</text></g><!--class IOperations--><g id="elem_IOperations"><rect codeLine="13" fill="#F1F1F1" height="178.6406" id="IOperations" rx="2.5" ry="2.5" style="stroke:#181818;stroke-width:0.5;" width="341" x="441.5" y="217.2969"/><ellipse cx="568.75" cy="237.4297" fill="#FFCC00" rx="11" ry="11" style="stroke:#181818;stroke-width:1.0;"/><path d="M568.2969,239.0234 L569.9688,239.0234 C571.5469,239.0234 572.3906,238.7422 573.1406,237.9141 C573.6875,237.3203 574,236.5078 574,235.7266 C574,233.8516 572.4688,232.5234 570.2969,232.5234 L566.3438,232.5234 C565.9063,232.5234 565.7813,232.5391 565.625,232.6328 C565.375,232.7891 565.2188,233.0859 565.2188,233.3672 C565.2188,233.6172 565.3594,233.8984 565.5781,234.0703 C565.7344,234.1797 565.9219,234.2109 566.3438,234.2109 L566.5938,234.2109 L566.5938,240.7266 L566.3438,240.7266 C565.9375,240.7266 565.7813,240.7422 565.625,240.8516 C565.375,241.0078 565.2188,241.2891 565.2188,241.5859 C565.2188,241.8359 565.3594,242.1016 565.5781,242.2578 C565.7188,242.3828 565.9531,242.4297 566.3438,242.4297 L569.9844,242.4297 C570.3281,242.4297 570.5781,242.3828 570.6875,242.3047 C570.9531,242.1641 571.1094,241.8672 571.1094,241.5859 C571.1094,241.3047 570.9688,241.0547 570.75,240.8828 C570.5781,240.7578 570.4375,240.7266 569.9844,240.7266 L568.2969,240.7266 L568.2969,239.0234 Z M568.2969,234.2109 L570.2969,234.2109 C571.4844,234.2109 572.1875,234.8203 572.1875,235.7891 C572.1875,236.7422 571.4844,237.3359 570.2969,237.3359 L568.2969,237.3359 L568.2969,234.2109 Z " fill="#000000"/><text fill="#000000" font-family="sans-serif" font-size="12" font-style="italic" lengthAdjust="spacing" textLength="39" x="608.75" y="233.4355">&#171;port&#187;</text><text fill="#000000" font-family="sans-serif" font-size="14" font-style="italic" lengthAdjust="spacing" textLength="78" x="589.25" y="249.2607">Operations</text><line style="stroke:#181818;stroke-width:0.5;" x1="442.5" x2="781.5" y1="257.5625" y2="257.5625"/><text fill="#000000" font-family="sans-serif" font-size="14" lengthAdjust="spacing" textLength="327" x="447.5" y="274.5576">&#171;usecase&#187; define backup requirement classes</text><text fill="#000000" font-family="sans-serif" font-size="14" lengthAdjust="spacing" textLength="255" x="447.5" y="290.8545">&#171;usecase&#187; define available storages</text><text fill="#000000" font-family="sans-serif" font-size="14" lengthAdjust="spacing" textLength="281" x="447.5" y="307.1514">&#171;usecase&#187; navigate projects of primary</text><text fill="#000000" font-family="sans-serif" font-size="14" lengthAdjust="spacing" textLength="263" x="447.5" y="323.4482">&#171;usecase&#187; get project backup status</text><text fill="#000000" font-family="sans-serif" font-size="14" lengthAdjust="spacing" textLength="280" x="447.5" y="339.7451">&#171;usecase&#187; trigger backup to secondary</text><text fill="#000000" font-family="sans-serif" font-size="14" lengthAdjust="spacing" textLength="258" x="447.5" y="356.042">&#171;usecase&#187; download project backup</text><text fill="#000000" font-family="sans-serif" font-size="14" lengthAdjust="spacing" textLength="329" x="447.5" y="372.3389">&#171;usecase&#187; update project backup target class</text><text fill="#000000" font-family="sans-serif" font-size="14" lengthAdjust="spacing" textLength="289" x="447.5" y="388.6357">&#171;usecase&#187; explore content of secondary</text></g><!--class PrimaryDevicePorts--><g id="elem_PrimaryDevicePorts"><rect codeLine="30" fill="#F1F1F1" height="97.1563" id="PrimaryDevicePorts" rx="2.5" ry="2.5" style="stroke:#181818;stroke-width:0.5;" width="332" x="451" y="630.7969"/><ellipse cx="559.75" cy="650.9297" fill="#FFCC00" rx="11" ry="11" style="stroke:#181818;stroke-width:1.0;"/><path d="M559.2969,652.5234 L560.9688,652.5234 C562.5469,652.5234 563.3906,652.2422 564.1406,651.4141 C564.6875,650.8203 565,650.0078 565,649.2266 C565,647.3516 563.4688,646.0234 561.2969,646.0234 L557.3438,646.0234 C556.9063,646.0234 556.7813,646.0391 556.625,646.1328 C556.375,646.2891 556.2188,646.5859 556.2188,646.8672 C556.2188,647.1172 556.3594,647.3984 556.5781,647.5703 C556.7344,647.6797 556.9219,647.7109 557.3438,647.7109 L557.5938,647.7109 L557.5938,654.2266 L557.3438,654.2266 C556.9375,654.2266 556.7813,654.2422 556.625,654.3516 C556.375,654.5078 556.2188,654.7891 556.2188,655.0859 C556.2188,655.3359 556.3594,655.6016 556.5781,655.7578 C556.7188,655.8828 556.9531,655.9297 557.3438,655.9297 L560.9844,655.9297 C561.3281,655.9297 561.5781,655.8828 561.6875,655.8047 C561.9531,655.6641 562.1094,655.3672 562.1094,655.0859 C562.1094,654.8047 561.9688,654.5547 561.75,654.3828 C561.5781,654.2578 561.4375,654.2266 560.9844,654.2266 L559.2969,654.2266 L559.2969,652.5234 Z M559.2969,647.7109 L561.2969,647.7109 C562.4844,647.7109 563.1875,648.3203 563.1875,649.2891 C563.1875,650.2422 562.4844,650.8359 561.2969,650.8359 L559.2969,650.8359 L559.2969,647.7109 Z " fill="#000000"/><text fill="#000000" font-family="sans-serif" font-size="12" font-style="italic" lengthAdjust="spacing" textLength="39" x="613.75" y="646.9355">&#171;port&#187;</text><text fill="#000000" font-family="sans-serif" font-size="14" font-style="italic" lengthAdjust="spacing" textLength="106" x="580.25" y="662.7607">Primary device</text><line style="stroke:#181818;stroke-width:0.5;" x1="452" x2="782" y1="671.0625" y2="671.0625"/><text fill="#000000" font-family="sans-serif" font-size="14" lengthAdjust="spacing" textLength="311" x="457" y="688.0576">&#171;interaction&#187; get global config file content</text><text fill="#000000" font-family="sans-serif" font-size="14" lengthAdjust="spacing" textLength="245" x="457" y="704.3545">&#171;interaction&#187; walk device tree file</text><text fill="#000000" font-family="sans-serif" font-size="14" lengthAdjust="spacing" textLength="320" x="457" y="720.6514">&#171;interaction&#187; get project config file content</text></g><!--class SecondaryDevicePorts--><g id="elem_SecondaryDevicePorts"><rect codeLine="36" fill="#F1F1F1" height="113.4531" id="SecondaryDevicePorts" rx="2.5" ry="2.5" style="stroke:#181818;stroke-width:0.5;" width="353" x="47.5" y="622.7969"/><ellipse cx="156.25" cy="642.9297" fill="#FFCC00" rx="11" ry="11" style="stroke:#181818;stroke-width:1.0;"/><path d="M155.7969,644.5234 L157.4688,644.5234 C159.0469,644.5234 159.8906,644.2422 160.6406,643.4141 C161.1875,642.8203 161.5,642.0078 161.5,641.2266 C161.5,639.3516 159.9688,638.0234 157.7969,638.0234 L153.8438,638.0234 C153.4063,638.0234 153.2813,638.0391 153.125,638.1328 C152.875,638.2891 152.7188,638.5859 152.7188,638.8672 C152.7188,639.1172 152.8594,639.3984 153.0781,639.5703 C153.2344,639.6797 153.4219,639.7109 153.8438,639.7109 L154.0938,639.7109 L154.0938,646.2266 L153.8438,646.2266 C153.4375,646.2266 153.2813,646.2422 153.125,646.3516 C152.875,646.5078 152.7188,646.7891 152.7188,647.0859 C152.7188,647.3359 152.8594,647.6016 153.0781,647.7578 C153.2188,647.8828 153.4531,647.9297 153.8438,647.9297 L157.4844,647.9297 C157.8281,647.9297 158.0781,647.8828 158.1875,647.8047 C158.4531,647.6641 158.6094,647.3672 158.6094,647.0859 C158.6094,646.8047 158.4688,646.5547 158.25,646.3828 C158.0781,646.2578 157.9375,646.2266 157.4844,646.2266 L155.7969,646.2266 L155.7969,644.5234 Z M155.7969,639.7109 L157.7969,639.7109 C158.9844,639.7109 159.6875,640.3203 159.6875,641.2891 C159.6875,642.2422 158.9844,642.8359 157.7969,642.8359 L155.7969,642.8359 L155.7969,639.7109 Z " fill="#000000"/><text fill="#000000" font-family="sans-serif" font-size="12" font-style="italic" lengthAdjust="spacing" textLength="39" x="220.75" y="638.9355">&#171;port&#187;</text><text fill="#000000" font-family="sans-serif" font-size="14" font-style="italic" lengthAdjust="spacing" textLength="127" x="176.75" y="654.7607">Secondary device</text><line style="stroke:#181818;stroke-width:0.5;" x1="48.5" x2="399.5" y1="663.0625" y2="663.0625"/><text fill="#000000" font-family="sans-serif" font-size="14" lengthAdjust="spacing" textLength="249" x="53.5" y="680.0576">&#171;interaction&#187; connect using config</text><text fill="#000000" font-family="sans-serif" font-size="14" lengthAdjust="spacing" textLength="284" x="53.5" y="696.3545">&#171;interaction&#187; walk through backup files</text><text fill="#000000" font-family="sans-serif" font-size="14" lengthAdjust="spacing" textLength="335" x="53.5" y="712.6514">&#171;interaction&#187; download backup files of project</text><text fill="#000000" font-family="sans-serif" font-size="14" lengthAdjust="spacing" textLength="341" x="53.5" y="728.9482">&#171;interaction&#187; upload new backup file of project</text></g><!--class BusinessLogic--><g id="elem_BusinessLogic"><rect codeLine="25" fill="#F1F1F1" height="40.2656" id="BusinessLogic" rx="2.5" ry="2.5" style="stroke:#181818;stroke-width:0.5;" width="131" x="549.5" y="494.2969"/><ellipse cx="564.5" cy="514.4297" fill="#FF8800" rx="11" ry="11" style="stroke:#181818;stroke-width:1.0;"/><path d="M561.4063,512.8203 L563.4219,517.0859 L564.9688,517.0859 L566.8594,512.8203 L566.8594,517.7266 L566.2656,517.7266 C565.8125,517.7266 565.7031,517.7422 565.5469,517.8516 C565.2969,518.0078 565.1406,518.2891 565.1406,518.5859 C565.1406,518.8359 565.2656,519.1016 565.5,519.2578 C565.625,519.3828 565.875,519.4297 566.2656,519.4297 L568.4688,519.4297 C568.8125,519.4297 569.0625,519.3828 569.1875,519.3047 C569.4375,519.1484 569.5938,518.8672 569.5938,518.5859 C569.5938,518.0391 569.2188,517.7266 568.5469,517.7266 L568.5469,511.2109 C569.1094,511.1641 569.4375,510.8672 569.4375,510.3672 C569.4375,510.1016 569.2969,509.8359 569.0938,509.6641 C568.9219,509.5547 568.7813,509.5234 568.3125,509.5234 L566.4531,509.5234 L564.1563,514.5703 L561.8125,509.5234 L559.9531,509.5234 C559.9375,509.5078 559.9219,509.5078 559.8906,509.5078 C559.6875,509.5078 559.3281,509.5703 559.2344,509.6172 C558.9844,509.7891 558.8281,510.0859 558.8281,510.3516 C558.8281,510.8672 559.1563,511.1641 559.7188,511.2109 L559.7188,517.7266 C559.0469,517.7266 558.6719,518.0391 558.6719,518.5859 C558.6719,518.8516 558.8125,519.1016 559.0313,519.2578 C559.1875,519.3828 559.4063,519.4297 559.8125,519.4297 L562.0156,519.4297 C562.3438,519.4297 562.6094,519.3828 562.7188,519.3047 C562.9844,519.1484 563.125,518.8672 563.125,518.5859 C563.125,518.3047 563.0156,518.0547 562.7969,517.8828 C562.6094,517.7578 562.4688,517.7266 562.0156,517.7266 L561.4063,517.7266 L561.4063,512.8203 Z " fill="#000000"/><text fill="#000000" font-family="sans-serif" font-size="12" font-style="italic" lengthAdjust="spacing" textLength="59" x="598.5" y="510.4355">&#171;module&#187;</text><text fill="#000000" font-family="sans-serif" font-size="14" lengthAdjust="spacing" textLength="99" x="578.5" y="526.2607">Business logic</text></g><!--entity main--><g id="elem_main"><rect fill="#F1F1F1" height="62.5938" rx="2.5" ry="2.5" style="stroke:#181818;stroke-width:0.5;" width="103" x="839.5" y="482.7969"/><rect fill="#F1F1F1" height="10" style="stroke:#181818;stroke-width:0.5;" width="15" x="922.5" y="487.7969"/><rect fill="#F1F1F1" height="2" style="stroke:#181818;stroke-width:0.5;" width="4" x="920.5" y="489.7969"/><rect fill="#F1F1F1" height="2" style="stroke:#181818;stroke-width:0.5;" width="4" x="920.5" y="493.7969"/><text fill="#000000" font-family="sans-serif" font-size="14" font-style="italic" lengthAdjust="spacing" textLength="63" x="854.5" y="515.792">&#171;binary&#187;</text><text fill="#000000" font-family="sans-serif" font-size="14" lengthAdjust="spacing" textLength="35" x="868.5" y="532.0889">main</text></g><!--link CLI to IOperations--><g id="link_CLI_IOperations"><path codeLine="48" d="M612,119.6299 C612,142.1109 612,174.7849 612,211.0799 " fill="none" id="CLI-to-IOperations" style="stroke:#181818;stroke-width:1.0;stroke-dasharray:7.0,7.0;"/><polygon fill="#181818" points="612,217.0799,616,208.0799,612,212.0799,608,208.0799,612,217.0799" style="stroke:#181818;stroke-width:1.0;"/><text fill="#000000" font-family="sans-serif" font-size="13" lengthAdjust="spacing" textLength="46" x="613" y="162.3638">&#171;uses&#187;</text></g><!--reverse link IOperations to BusinessLogic--><g id="link_IOperations_BusinessLogic"><path codeLine="50" d="M613.5569,414.437 C614.0869,450.719 614.388,471.3949 614.717,493.9009 " fill="none" id="IOperations-backto-BusinessLogic" style="stroke:#181818;stroke-width:1.0;"/><polygon fill="none" points="613.294,396.4389,607.5576,414.5246,619.5563,414.3493,613.294,396.4389" style="stroke:#181818;stroke-width:1.0;"/><text fill="#000000" font-family="sans-serif" font-size="13" lengthAdjust="spacing" textLength="92" x="615" y="439.3638">&#171;implements&#187;</text></g><!--link BusinessLogic to PrimaryDevicePorts--><g id="link_BusinessLogic_PrimaryDevicePorts"><path codeLine="52" d="M615.233,534.3139 C615.521,557.7449 615.9465,592.3943 616.3405,624.5383 " fill="none" id="BusinessLogic-to-PrimaryDevicePorts" style="stroke:#181818;stroke-width:1.0;stroke-dasharray:7.0,7.0;"/><polygon fill="#181818" points="616.414,630.5379,620.3034,621.4895,616.3527,625.5383,612.304,621.5876,616.414,630.5379" style="stroke:#181818;stroke-width:1.0;"/><text fill="#000000" font-family="sans-serif" font-size="13" lengthAdjust="spacing" textLength="46" x="617" y="588.8638">&#171;uses&#187;</text></g><!--link BusinessLogic to SecondaryDevicePorts--><g id="link_BusinessLogic_SecondaryDevicePorts"><path codeLine="53" d="M569.382,534.3139 C517.61,555.8969 436.329,589.7812 362.691,620.4792 " fill="none" id="BusinessLogic-to-SecondaryDevicePorts" style="stroke:#181818;stroke-width:1.0;stroke-dasharray:7.0,7.0;"/><polygon fill="#181818" points="357.153,622.7879,366.9992,623.0169,361.768,620.864,363.9209,615.6328,357.153,622.7879" style="stroke:#181818;stroke-width:1.0;"/><text fill="#000000" font-family="sans-serif" font-size="13" lengthAdjust="spacing" textLength="46" x="468" y="588.8638">&#171;uses&#187;</text></g><!--reverse link PrimaryDevicePorts to LocalUnixStorage--><g id="link_PrimaryDevicePorts_LocalUnixStorage"><path codeLine="55" d="M617,746.0239 C617,775.2429 617,793.0428 617,814.6035 " fill="none" id="PrimaryDevicePorts-backto-LocalUnixStorage" style="stroke:#181818;stroke-width:1.0;"/><polygon fill="none" points="617,728.0239,611,746.0239,623,746.0239,617,728.0239" style="stroke:#181818;stroke-width:1.0;"/><text fill="#000000" font-family="sans-serif" font-size="13" lengthAdjust="spacing" textLength="92" x="618" y="780.8638">&#171;implements&#187;</text></g><!--reverse link SecondaryDevicePorts to S3Storage--><g id="link_SecondaryDevicePorts_S3Storage"><path codeLine="57" d="M224,754.1479 C224,781.5789 224,794.8654 224,814.4726 " fill="none" id="SecondaryDevicePorts-backto-S3Storage" style="stroke:#181818;stroke-width:1.0;"/><polygon fill="none" points="224,736.1479,218,754.1479,230,754.1479,224,736.1479" style="stroke:#181818;stroke-width:1.0;"/><text fill="#000000" font-family="sans-serif" font-size="13" lengthAdjust="spacing" textLength="92" x="225" y="780.8638">&#171;implements&#187;</text></g><!--reverse link SecondaryDevicePorts to LocalUnixStorage--><g id="link_SecondaryDevicePorts_LocalUnixStorage"><path codeLine="58" d="M381.7141,742.4651 C402.1851,750.5051 406.253,752.0859 426,759.7969 C474.032,778.5529 528.929,799.8025 567.504,814.7034 " fill="none" id="SecondaryDevicePorts-backto-LocalUnixStorage" style="stroke:#181818;stroke-width:1.0;"/><polygon fill="none" points="364.96,735.8849,379.5207,748.0498,383.9075,736.8804,364.96,735.8849" style="stroke:#181818;stroke-width:1.0;"/><text fill="#000000" font-family="sans-serif" font-size="13" lengthAdjust="spacing" textLength="92" x="490" y="780.8638">&#171;implements&#187;</text></g><!--link main to CLI--><g id="link_main_CLI"><path codeLine="61" d="M891.826,482.3299 C891.878,417.0529 882.867,263.9789 803,174.2969 C765.277,131.9389 706.3235,114.6922 662.7845,106.9132 " fill="none" id="main-to-CLI" style="stroke:#181818;stroke-width:1.0;stroke-dasharray:7.0,7.0;"/><polygon fill="#181818" points="656.878,105.8579,665.0342,111.3785,661.8001,106.7373,666.4412,103.5032,656.878,105.8579" style="stroke:#181818;stroke-width:1.0;"/><text fill="#000000" font-family="sans-serif" font-size="13" lengthAdjust="spacing" textLength="53" x="887" y="311.3638">&#171;starts&#187;</text></g><!--link main to BusinessLogic--><g id="link_main_BusinessLogic"><path codeLine="62" d="M839.097,514.2969 C794.259,514.2969 735.229,514.2969 686.758,514.2969 " fill="none" id="main-to-BusinessLogic" style="stroke:#181818;stroke-width:1.0;stroke-dasharray:7.0,7.0;"/><polygon fill="#181818" points="680.758,514.2969,689.758,518.2969,685.758,514.2969,689.758,510.2969,680.758,514.2969" style="stroke:#181818;stroke-width:1.0;"/><text fill="#000000" font-family="sans-serif" font-size="13" lengthAdjust="spacing" textLength="57" x="731.5" y="507.3638">&#171;injects&#187;</text></g><!--link main to LocalUnixStorage--><g id="link_main_LocalUnixStorage"><path codeLine="63" d="M887.999,546.2029 C881.468,597.1979 861.499,699.3249 803,759.7969 C774.245,789.5214 737.7904,805.9123 700.8444,816.7506 " fill="none" id="main-to-LocalUnixStorage" style="stroke:#181818;stroke-width:1.0;stroke-dasharray:7.0,7.0;"/><polygon fill="#181818" points="695.087,818.4396,704.849,819.7444,699.8848,817.0321,702.5971,812.0679,695.087,818.4396" style="stroke:#181818;stroke-width:1.0;"/><text fill="#000000" font-family="sans-serif" font-size="13" lengthAdjust="spacing" textLength="57" x="873" y="683.8638">&#171;injects&#187;</text></g><!--SRC=[XLNlQzim4Ftkl-BelgPTs0ye8nYobB92nmfbdyOO5_kYQ94bJPARbAt_-qvod3YDu_YJBTsxUthtT0uoA8ABBt9EJcCWMD86XT6e05snb86AK3i2wumrdbS_N6IPNqbjqM45sfJaoSB7SRQK9G5LDZn3HHMdynagPTQ_AhcHMcHPOIfhDEa05KeDaybSQdJFUGvPvhWCQX6fJ4kqWT4NyEPsUZkzUGT_C-2dKEWzpExl63aTjPiZm2O-pxCKridqkVPI4uDyfFOM7emBAUtjR3OURzF6HsfEiC22CTyiEGpIQ0v43tVxR-2w3wCMFGBBsPZxFajy9fFQKu6UUAUa1PU7EHQhsZAlFxLqLCNpfwEGFuV49vGAvtmK7un3CO3G-2H5R1_twJShuC4i-5rMBF19aA3GnhSiVS1GdouJd1I2N1iT3F2MqULGbTAijJ9OlYfrChwsPUSWkrBe8jsat4aeRQmoR5Qc5ABEhC4nlvTizphWbHddILQvlZwmojw9UuWoGXR9BktIVLnXQbz7ROeHLAQi5IN776HxwMFMSUH3qqKsnPCiA9NPBjsabUJgVcyUcJEbnIBwUTj_eSoSRpMBj9025bBjr1k4hb6jjepO54G9URPOszEXQlqYFBPjxCgmMpmhnB0Ed4L7Mh5vOalk_Ed3qfbQB5k3niFuGTJk8dGHpJrDiWo2QvkWcjPTU1-wyTDMniQgzwP0zLtBpMCpHqvEq3tayVsvMAuGX_7LLTwTaf-Q2-dZEEuEpyc_oyl3wn4ZPMLL6eaf_l3snCJ7Hk_aFmxlCqINKD-zYRnUwtDChTzg4RiJwWXq6dE-NfP-aLS_DE_hrSyy_lTY5CzdboAQ_Rn7KftcVoUajreRzHy0]--></g></svg>