<?xml version="1.0" encoding="us-ascii" standalone="no"?><svg xmlns="http://www.w3.org/2000/svg" xmlns:xlink="http://www.w3.org/1999/xlink" contentStyleType="text/css" height="798px" preserveAspectRatio="none" style="width:945px;height:798px;background:#FFFFFF;" version="1.1" viewBox="0 0 945 798" width="945px" zoomAndPan="magnify"><defs/><g><text fill="#000000" font-family="sans-serif" font-size="14" font-weight="bold" lengthAdjust="spacing" textLength="242" x="344.5" y="22.9951">Factory and Iterator patterns</text><text fill="#000000" font-family="sans-serif" font-size="14" font-weight="bold" lengthAdjust="spacing" textLength="140" x="395.5" y="39.292">to create devices</text><!--cluster cli--><g id="cluster_cli"><path d="M161.5,59.5938 L181.5,59.5938 A3.75,3.75 0 0 1 184,62.0938 L191,81.8906 L578.5,81.8906 A2.5,2.5 0 0 1 581,84.3906 L581,419.0938 A2.5,2.5 0 0 1 578.5,421.5938 L161.5,421.5938 A2.5,2.5 0 0 1 159,419.0938 L159,62.0938 A2.5,2.5 0 0 1 161.5,59.5938 " fill="none" style="stroke:#000000;stroke-width:1.5;"/><line style="stroke:#000000;stroke-width:1.5;" x1="159" x2="191" y1="81.8906" y2="81.8906"/><text fill="#000000" font-family="sans-serif" font-size="14" font-weight="bold" lengthAdjust="spacing" textLength="19" x="163" y="74.5889">cli</text></g><!--cluster core--><g id="cluster_core"><path d="M8.5,470.5938 L44.5,470.5938 A3.75,3.75 0 0 1 47,473.0938 L54,492.8906 L935.5,492.8906 A2.5,2.5 0 0 1 938,495.3906 L938,673.0938 A2.5,2.5 0 0 1 935.5,675.5938 L8.5,675.5938 A2.5,2.5 0 0 1 6,673.0938 L6,473.0938 A2.5,2.5 0 0 1 8.5,470.5938 " fill="none" style="stroke:#000000;stroke-width:1.5;"/><line style="stroke:#000000;stroke-width:1.5;" x1="6" x2="54" y1="492.8906" y2="492.8906"/><text fill="#000000" font-family="sans-serif" font-size="14" font-weight="bold" lengthAdjust="spacing" textLength="35" x="10" y="485.5889">core</text></g><!--cluster devices--><g id="cluster_devices"><path d="M32.5,708.5938 L93.5,708.5938 A3.75,3.75 0 0 1 96,711.0938 L103,730.8906 L381.5,730.8906 A2.5,2.5 0 0 1 384,733.3906 L384,789.0938 A2.5,2.5 0 0 1 381.5,791.5938 L32.5,791.5938 A2.5,2.5 0 0 1 30,789.0938 L30,711.0938 A2.5,2.5 0 0 1 32.5,708.5938 " fill="none" style="stroke:#000000;stroke-width:1.5;"/><line style="stroke:#000000;stroke-width:1.5;" x1="30" x2="103" y1="730.8906" y2="730.8906"/><text fill="#000000" font-family="sans-serif" font-size="14" font-weight="bold" lengthAdjust="spacing" textLength="60" x="34" y="723.5889">devices</text></g><!--class CLI--><g id="elem_CLI"><rect codeLine="6" fill="#F1F1F1" height="88.8906" id="CLI" rx="2.5" ry="2.5" style="stroke:#181818;stroke-width:0.5;" width="389" x="175.5" y="316.5938"/><ellipse cx="354.75" cy="332.5938" fill="#F1F1F1" rx="11" ry="11" style="stroke:#181818;stroke-width:1.0;"/><path d="M358.5313,328.5625 C358.5313,328.125 358.5156,327.9844 358.4219,327.8281 C358.2813,327.5938 358,327.4375 357.7031,327.4375 C357.3594,327.4375 357.2188,327.5781 357.0469,328 C356.4531,327.625 355.7031,327.4375 354.8281,327.4375 C352.7188,327.4375 351.1406,328.7344 351.1406,330.4531 C351.1406,331.4219 351.6719,332.3281 352.5313,332.8125 C353.0781,333.125 353.625,333.2969 354.7344,333.4844 C355.8906,333.6875 356.1563,333.75 356.5156,333.9375 C356.8906,334.1406 357.125,334.4844 357.125,334.8438 C357.125,335.5781 356.1406,336.125 354.8906,336.125 C353.7656,336.125 352.6875,335.6406 352.5156,335.0313 C352.3906,334.5625 352.3906,334.5625 352.2656,334.4531 C352.1094,334.2969 351.8906,334.2031 351.6563,334.2031 C351.375,334.2031 351.125,334.3281 350.9531,334.5469 C350.8438,334.7188 350.7969,334.9063 350.7969,335.3281 L350.7969,336.4531 C350.7969,337.2188 351.0781,337.5781 351.6719,337.5781 C351.9375,337.5781 352.0625,337.5156 352.3438,337.1719 C353.1875,337.6094 354.0781,337.8281 355,337.8281 C357.3281,337.8281 358.8906,336.6406 358.8906,334.875 C358.8906,333.9844 358.5781,333.2969 357.8906,332.75 C357.3594,332.3281 356.7188,332.0781 355.2344,331.8125 C353.9688,331.5781 353.875,331.5469 353.5469,331.375 C353.1719,331.1875 352.9063,330.7969 352.9063,330.4375 C352.9063,329.7031 353.7656,329.1406 354.8281,329.1406 C355.8906,329.1406 356.7031,329.6094 356.8594,330.2813 C356.9688,330.8281 356.9688,330.8281 357.0938,330.9688 C357.2344,331.0938 357.4688,331.2031 357.7031,331.2031 C357.9688,331.2031 358.2188,331.0625 358.3906,330.8438 C358.5,330.6719 358.5313,330.5313 358.5313,330.0625 L358.5313,328.5625 Z " fill="#000000"/><text fill="#000000" font-family="sans-serif" font-size="14" lengthAdjust="spacing" textLength="22" x="375.25" y="337.4404">CLI</text><line style="stroke:#181818;stroke-width:0.5;" x1="176.5" x2="563.5" y1="348.5938" y2="348.5938"/><ellipse cx="186.5" cy="362.2422" fill="#84BE84" rx="3" ry="3" style="stroke:#038048;stroke-width:1.0;"/><text fill="#000000" font-family="sans-serif" font-size="14" lengthAdjust="spacing" textLength="33" x="195.5" y="365.5889">run()</text><rect fill="#F24D5C" height="6" style="stroke:#C82930;stroke-width:1.0;" width="6" x="183.5" y="375.5391"/><text fill="#000000" font-family="sans-serif" font-size="14" lengthAdjust="spacing" textLength="111" x="195.5" y="381.8857">create_device()</text><rect fill="#F24D5C" height="6" style="stroke:#C82930;stroke-width:1.0;" width="6" x="183.5" y="391.8359"/><text fill="#000000" font-family="sans-serif" font-size="14" lengthAdjust="spacing" textLength="363" x="195.5" y="398.1826">ask_question(question: Question): QuestionAnswer</text></g><g id="elem_GMN4"><path d="M205,94.5938 L205,255.9219 A0,0 0 0 0 205,255.9219 L366,255.9219 L370,316.5618 L374,255.9219 L535,255.9219 A0,0 0 0 0 535,255.9219 L535,104.5938 L525,94.5938 L205,94.5938 A0,0 0 0 0 205,94.5938 " fill="#FEFFDD" style="stroke:#181818;stroke-width:0.5;"/><path d="M525,94.5938 L525,104.5938 L535,104.5938 L525,94.5938 " fill="#FEFFDD" style="stroke:#181818;stroke-width:0.5;"/><text fill="#000000" font-family="sans-serif" font-size="13" lengthAdjust="spacing" textLength="130" x="211" y="111.6606">fn create_device() {</text><text fill="#000000" font-family="sans-serif" font-size="13" lengthAdjust="spacing" textLength="228" x="227" y="126.7935">let factory = DeviceFactory::new();</text><text fill="#000000" font-family="sans-serif" font-size="13" lengthAdjust="spacing" textLength="231" x="227" y="141.9263">while factory.has_next_question() {</text><text fill="#000000" font-family="sans-serif" font-size="13" lengthAdjust="spacing" textLength="277" x="243" y="157.0591">let question = factory.get_next_question();</text><text fill="#000000" font-family="sans-serif" font-size="13" lengthAdjust="spacing" textLength="239" x="243" y="172.1919">let answer = ask_question(question);</text><text fill="#000000" font-family="sans-serif" font-size="13" lengthAdjust="spacing" textLength="186" x="243" y="187.3247">factory.set_answer(answer);</text><text fill="#000000" font-family="sans-serif" font-size="13" lengthAdjust="spacing" textLength="9" x="227" y="202.4575">}</text><text fill="#000000" font-family="sans-serif" font-size="13" lengthAdjust="spacing" textLength="230" x="227" y="217.5903">let device = factory.createDevice();</text><text fill="#000000" font-family="sans-serif" font-size="13" lengthAdjust="spacing" textLength="90" x="227" y="232.7231">return device;</text><text fill="#000000" font-family="sans-serif" font-size="13" lengthAdjust="spacing" textLength="9" x="211" y="247.856">}</text></g><!--class QuestionType--><g id="elem_QuestionType"><rect codeLine="27" fill="#F1F1F1" height="154.0781" id="QuestionType" rx="2.5" ry="2.5" style="stroke:#181818;stroke-width:0.5;" width="132" x="790" y="505.5938"/><ellipse cx="805" cy="521.5938" fill="#EB937F" rx="11" ry="11" style="stroke:#181818;stroke-width:1.0;"/><path d="M803.7969,522.4688 L805.25,522.4688 L805.25,522.5781 C805.25,522.9844 805.2813,523.1406 805.3594,523.2969 C805.5156,523.5469 805.7969,523.7031 806.0938,523.7031 C806.3438,523.7031 806.6094,523.5625 806.7656,523.3438 C806.8906,523.1875 806.9219,523.0313 806.9219,522.5781 L806.9219,520.6563 C806.9219,520.5 806.9219,520.4531 806.9063,520.2969 C806.8438,519.8281 806.5313,519.5156 806.0781,519.5156 C805.8281,519.5156 805.5625,519.6563 805.3906,519.875 C805.2813,520.0469 805.25,520.2031 805.25,520.6563 L805.25,520.7813 L803.7969,520.7813 L803.7969,518.375 L807.7813,518.375 L807.7813,519.2344 C807.7813,519.6406 807.8125,519.8125 807.8906,519.9688 C808.0625,520.2188 808.3438,520.375 808.625,520.375 C808.8906,520.375 809.1563,520.2344 809.3281,520.0156 C809.4375,519.8438 809.4688,519.7031 809.4688,519.2344 L809.4688,516.6875 L801.8438,516.6875 C801.4063,516.6875 801.2813,516.7031 801.125,516.7969 C800.875,516.9531 800.7188,517.25 800.7188,517.5313 C800.7188,517.8125 800.8594,518.0625 801.0781,518.2344 C801.2344,518.3438 801.4219,518.375 801.8438,518.375 L802.0938,518.375 L802.0938,524.8906 L801.8438,524.8906 C801.4375,524.8906 801.2813,524.9063 801.125,525.0156 C800.875,525.1875 800.7188,525.4531 800.7188,525.75 C800.7188,526.0156 800.8594,526.2656 801.0781,526.4219 C801.2188,526.5469 801.4531,526.5938 801.8438,526.5938 L809.8438,526.5938 L809.8438,524.0156 C809.8438,523.5781 809.8125,523.4375 809.7344,523.2813 C809.5625,523.0313 809.2813,522.875 809,522.875 C808.7344,522.875 808.4688,522.9844 808.2969,523.2344 C808.1875,523.3906 808.1563,523.5313 808.1563,524.0156 L808.1563,524.8906 L803.7969,524.8906 L803.7969,522.4688 Z " fill="#000000"/><text fill="#000000" font-family="sans-serif" font-size="14" lengthAdjust="spacing" textLength="100" x="819" y="526.4404">QuestionType</text><line style="stroke:#181818;stroke-width:0.5;" x1="791" x2="921" y1="537.5938" y2="537.5938"/><text fill="#000000" font-family="sans-serif" font-size="14" lengthAdjust="spacing" textLength="37" x="796" y="554.5889">TEXT</text><text fill="#000000" font-family="sans-serif" font-size="14" lengthAdjust="spacing" textLength="78" x="796" y="570.8857">UNIX_PATH</text><text fill="#000000" font-family="sans-serif" font-size="14" lengthAdjust="spacing" textLength="118" x="796" y="587.1826">WINDOWS_PATH</text><text fill="#000000" font-family="sans-serif" font-size="14" lengthAdjust="spacing" textLength="89" x="796" y="603.4795">IP_ADDRESS</text><text fill="#000000" font-family="sans-serif" font-size="14" lengthAdjust="spacing" textLength="60" x="796" y="619.7764">NUMBER</text><text fill="#000000" font-family="sans-serif" font-size="14" lengthAdjust="spacing" textLength="39" x="796" y="636.0732">DATE</text><text fill="#000000" font-family="sans-serif" font-size="14" lengthAdjust="spacing" textLength="15" x="796" y="652.3701">...</text></g><!--class Question--><g id="elem_Question"><rect codeLine="37" fill="#F1F1F1" height="72.5938" id="Question" rx="2.5" ry="2.5" style="stroke:#181818;stroke-width:0.5;" width="168" x="587" y="546.0938"/><ellipse cx="634.75" cy="562.0938" fill="#F1F1F1" rx="11" ry="11" style="stroke:#181818;stroke-width:1.0;"/><path d="M638.5313,558.0625 C638.5313,557.625 638.5156,557.4844 638.4219,557.3281 C638.2813,557.0938 638,556.9375 637.7031,556.9375 C637.3594,556.9375 637.2188,557.0781 637.0469,557.5 C636.4531,557.125 635.7031,556.9375 634.8281,556.9375 C632.7188,556.9375 631.1406,558.2344 631.1406,559.9531 C631.1406,560.9219 631.6719,561.8281 632.5313,562.3125 C633.0781,562.625 633.625,562.7969 634.7344,562.9844 C635.8906,563.1875 636.1563,563.25 636.5156,563.4375 C636.8906,563.6406 637.125,563.9844 637.125,564.3438 C637.125,565.0781 636.1406,565.625 634.8906,565.625 C633.7656,565.625 632.6875,565.1406 632.5156,564.5313 C632.3906,564.0625 632.3906,564.0625 632.2656,563.9531 C632.1094,563.7969 631.8906,563.7031 631.6563,563.7031 C631.375,563.7031 631.125,563.8281 630.9531,564.0469 C630.8438,564.2188 630.7969,564.4063 630.7969,564.8281 L630.7969,565.9531 C630.7969,566.7188 631.0781,567.0781 631.6719,567.0781 C631.9375,567.0781 632.0625,567.0156 632.3438,566.6719 C633.1875,567.1094 634.0781,567.3281 635,567.3281 C637.3281,567.3281 638.8906,566.1406 638.8906,564.375 C638.8906,563.4844 638.5781,562.7969 637.8906,562.25 C637.3594,561.8281 636.7188,561.5781 635.2344,561.3125 C633.9688,561.0781 633.875,561.0469 633.5469,560.875 C633.1719,560.6875 632.9063,560.2969 632.9063,559.9375 C632.9063,559.2031 633.7656,558.6406 634.8281,558.6406 C635.8906,558.6406 636.7031,559.1094 636.8594,559.7813 C636.9688,560.3281 636.9688,560.3281 637.0938,560.4688 C637.2344,560.5938 637.4688,560.7031 637.7031,560.7031 C637.9688,560.7031 638.2188,560.5625 638.3906,560.3438 C638.5,560.1719 638.5313,560.0313 638.5313,559.5625 L638.5313,558.0625 Z " fill="#000000"/><text fill="#000000" font-family="sans-serif" font-size="14" lengthAdjust="spacing" textLength="64" x="655.25" y="566.9404">Question</text><line style="stroke:#181818;stroke-width:0.5;" x1="588" x2="754" y1="578.0938" y2="578.0938"/><ellipse cx="598" cy="591.7422" fill="none" rx="3" ry="3" style="stroke:#038048;stroke-width:1.0;"/><text fill="#000000" font-family="sans-serif" font-size="14" lengthAdjust="spacing" textLength="113" x="607" y="595.0889">question: string</text><ellipse cx="598" cy="608.0391" fill="none" rx="3" ry="3" style="stroke:#038048;stroke-width:1.0;"/><text fill="#000000" font-family="sans-serif" font-size="14" lengthAdjust="spacing" textLength="142" x="607" y="611.3857">answer_type: string</text></g><!--class Device--><g id="elem_Device"><rect codeLine="42" fill="#F1F1F1" height="32" id="Device" rx="2.5" ry="2.5" style="stroke:#181818;stroke-width:0.5;" width="81" x="22.5" y="566.5938"/><ellipse cx="37.5" cy="582.5938" fill="#B4A7E5" rx="11" ry="11" style="stroke:#181818;stroke-width:1.0;"/><path d="M38.4531,579.375 L40.1719,579.375 C40.5625,579.375 40.75,579.3438 40.875,579.2656 C41.1406,579.1094 41.2813,578.8281 41.2813,578.5313 C41.2813,578.2656 41.1719,578 40.9375,577.8281 C40.7656,577.7188 40.625,577.6875 40.1719,577.6875 L35.0313,577.6875 C34.5938,577.6875 34.4688,577.7031 34.3125,577.7969 C34.0625,577.9531 33.9063,578.25 33.9063,578.5313 C33.9063,578.8125 34.0469,579.0625 34.2656,579.2344 C34.4219,579.3438 34.6094,579.375 35.0313,579.375 L36.75,579.375 L36.75,585.8906 L35.0313,585.8906 C34.5938,585.8906 34.4688,585.9063 34.3125,586.0156 C34.0625,586.1719 33.9063,586.4531 33.9063,586.75 C33.9063,587 34.0469,587.2656 34.2656,587.4219 C34.4219,587.5469 34.625,587.5938 35.0313,587.5938 L40.1719,587.5938 C40.9219,587.5938 41.2813,587.3125 41.2813,586.75 C41.2813,586.4688 41.1719,586.2188 40.9375,586.0469 C40.7656,585.9219 40.625,585.8906 40.1719,585.8906 L38.4531,585.8906 L38.4531,579.375 Z " fill="#000000"/><text fill="#000000" font-family="sans-serif" font-size="14" font-style="italic" lengthAdjust="spacing" textLength="49" x="51.5" y="587.4404">Device</text></g><!--class AbstractDeviceFactory--><g id="elem_AbstractDeviceFactory"><rect codeLine="45" fill="#F1F1F1" height="105.1875" id="AbstractDeviceFactory" rx="2.5" ry="2.5" style="stroke:#181818;stroke-width:0.5;" width="363" x="188.5" y="530.0938"/><ellipse cx="203.5" cy="546.0938" fill="#B4A7E5" rx="11" ry="11" style="stroke:#181818;stroke-width:1.0;"/><path d="M204.4531,542.875 L206.1719,542.875 C206.5625,542.875 206.75,542.8438 206.875,542.7656 C207.1406,542.6094 207.2813,542.3281 207.2813,542.0313 C207.2813,541.7656 207.1719,541.5 206.9375,541.3281 C206.7656,541.2188 206.625,541.1875 206.1719,541.1875 L201.0313,541.1875 C200.5938,541.1875 200.4688,541.2031 200.3125,541.2969 C200.0625,541.4531 199.9063,541.75 199.9063,542.0313 C199.9063,542.3125 200.0469,542.5625 200.2656,542.7344 C200.4219,542.8438 200.6094,542.875 201.0313,542.875 L202.75,542.875 L202.75,549.3906 L201.0313,549.3906 C200.5938,549.3906 200.4688,549.4063 200.3125,549.5156 C200.0625,549.6719 199.9063,549.9531 199.9063,550.25 C199.9063,550.5 200.0469,550.7656 200.2656,550.9219 C200.4219,551.0469 200.625,551.0938 201.0313,551.0938 L206.1719,551.0938 C206.9219,551.0938 207.2813,550.8125 207.2813,550.25 C207.2813,549.9688 207.1719,549.7188 206.9375,549.5469 C206.7656,549.4219 206.625,549.3906 206.1719,549.3906 L204.4531,549.3906 L204.4531,542.875 Z " fill="#000000"/><text fill="#000000" font-family="sans-serif" font-size="14" font-style="italic" lengthAdjust="spacing" textLength="161" x="217.5" y="550.9404">AbstractDeviceFactory</text><rect fill="#FFFFFF" height="15.9688" style="stroke:#181818;stroke-width:1.0;stroke-dasharray:2.0,2.0;" width="168" x="386.5" y="527.0938"/><text fill="#000000" font-family="sans-serif" font-size="12" font-style="italic" lengthAdjust="spacing" textLength="166" x="387.5" y="539.2324">TDevice implements Device</text><line style="stroke:#181818;stroke-width:0.5;" x1="189.5" x2="550.5" y1="562.0938" y2="562.0938"/><text fill="#000000" font-family="sans-serif" font-size="14" lengthAdjust="spacing" textLength="184" x="194.5" y="579.0889">has_next_question(): bool</text><text fill="#000000" font-family="sans-serif" font-size="14" lengthAdjust="spacing" textLength="217" x="194.5" y="595.3857">get_next_question(): Question</text><text fill="#000000" font-family="sans-serif" font-size="14" lengthAdjust="spacing" textLength="265" x="194.5" y="611.6826">set_answer(answer: QuestionAnswer)</text><text fill="#000000" font-family="sans-serif" font-size="14" lengthAdjust="spacing" textLength="173" x="194.5" y="627.9795">createDevice(): TDevice</text></g><!--class DeviceAFactory--><g id="elem_DeviceAFactory"><rect codeLine="58" fill="#F1F1F1" height="32" id="DeviceAFactory" rx="2.5" ry="2.5" style="stroke:#181818;stroke-width:0.5;" width="145" x="222.5" y="743.5938"/><ellipse cx="237.5" cy="759.5938" fill="#ADD1B2" rx="11" ry="11" style="stroke:#181818;stroke-width:1.0;"/><path d="M239.8438,755.2656 C238.9063,754.8281 238.3125,754.6875 237.4375,754.6875 C234.8125,754.6875 232.8125,756.7656 232.8125,759.4844 L232.8125,760.6094 C232.8125,763.1875 234.9219,765.0781 237.8125,765.0781 C239.0313,765.0781 240.1875,764.7813 240.9375,764.2344 C241.5156,763.8281 241.8438,763.375 241.8438,762.9844 C241.8438,762.5313 241.4531,762.1406 240.9844,762.1406 C240.7656,762.1406 240.5625,762.2188 240.375,762.4063 C239.9219,762.8906 239.9219,762.8906 239.7344,762.9844 C239.3125,763.25 238.625,763.375 237.8594,763.375 C235.8125,763.375 234.5156,762.2813 234.5156,760.5781 L234.5156,759.4844 C234.5156,757.7031 235.7656,756.3906 237.5,756.3906 C238.0781,756.3906 238.6875,756.5469 239.1563,756.7969 C239.6406,757.0781 239.8125,757.2969 239.9063,757.7031 C239.9688,758.1094 240,758.2344 240.1406,758.3594 C240.2813,758.5 240.5156,758.6094 240.7344,758.6094 C241,758.6094 241.2656,758.4688 241.4375,758.25 C241.5469,758.0938 241.5781,757.9063 241.5781,757.4844 L241.5781,756.0625 C241.5781,755.625 241.5625,755.5 241.4688,755.3438 C241.3125,755.0781 241.0313,754.9375 240.7344,754.9375 C240.4375,754.9375 240.2344,755.0313 240.0156,755.3438 L239.8438,755.2656 Z " fill="#000000"/><text fill="#000000" font-family="sans-serif" font-size="14" lengthAdjust="spacing" textLength="113" x="251.5" y="764.4404">DeviceAFactory</text></g><!--class DeviceA--><g id="elem_DeviceA"><rect codeLine="61" fill="#F1F1F1" height="32" id="DeviceA" rx="2.5" ry="2.5" style="stroke:#181818;stroke-width:0.5;" width="91" x="46.5" y="743.5938"/><ellipse cx="61.5" cy="759.5938" fill="#ADD1B2" rx="11" ry="11" style="stroke:#181818;stroke-width:1.0;"/><path d="M63.8438,755.2656 C62.9063,754.8281 62.3125,754.6875 61.4375,754.6875 C58.8125,754.6875 56.8125,756.7656 56.8125,759.4844 L56.8125,760.6094 C56.8125,763.1875 58.9219,765.0781 61.8125,765.0781 C63.0313,765.0781 64.1875,764.7813 64.9375,764.2344 C65.5156,763.8281 65.8438,763.375 65.8438,762.9844 C65.8438,762.5313 65.4531,762.1406 64.9844,762.1406 C64.7656,762.1406 64.5625,762.2188 64.375,762.4063 C63.9219,762.8906 63.9219,762.8906 63.7344,762.9844 C63.3125,763.25 62.625,763.375 61.8594,763.375 C59.8125,763.375 58.5156,762.2813 58.5156,760.5781 L58.5156,759.4844 C58.5156,757.7031 59.7656,756.3906 61.5,756.3906 C62.0781,756.3906 62.6875,756.5469 63.1563,756.7969 C63.6406,757.0781 63.8125,757.2969 63.9063,757.7031 C63.9688,758.1094 64,758.2344 64.1406,758.3594 C64.2813,758.5 64.5156,758.6094 64.7344,758.6094 C65,758.6094 65.2656,758.4688 65.4375,758.25 C65.5469,758.0938 65.5781,757.9063 65.5781,757.4844 L65.5781,756.0625 C65.5781,755.625 65.5625,755.5 65.4688,755.3438 C65.3125,755.0781 65.0313,754.9375 64.7344,754.9375 C64.4375,754.9375 64.2344,755.0313 64.0156,755.3438 L63.8438,755.2656 Z " fill="#000000"/><text fill="#000000" font-family="sans-serif" font-size="14" lengthAdjust="spacing" textLength="59" x="75.5" y="764.4404">DeviceA</text></g><!--reverse link AbstractDeviceFactory to Question--><g id="link_AbstractDeviceFactory_Question"><path codeLine="52" d="M563.658,582.5938 C575.313,582.5938 574.967,582.5938 586.622,582.5938 " fill="none" id="AbstractDeviceFactory-backto-Question" style="stroke:#181818;stroke-width:1.0;"/><polygon fill="#181818" points="551.658,582.5938,557.658,586.5938,563.658,582.5938,557.658,578.5938,551.658,582.5938" style="stroke:#181818;stroke-width:1.0;"/></g><!--reverse link Question to QuestionType--><g id="link_Question_QuestionType"><path codeLine="53" d="M767.189,582.5938 C778.741,582.5938 778.292,582.5938 789.843,582.5938 " fill="none" id="Question-backto-QuestionType" style="stroke:#181818;stroke-width:1.0;"/><polygon fill="#181818" points="755.189,582.5938,761.189,586.5938,767.189,582.5938,761.189,578.5938,755.189,582.5938" style="stroke:#181818;stroke-width:1.0;"/></g><!--reverse link Device to AbstractDeviceFactory--><g id="link_Device_AbstractDeviceFactory"><path codeLine="54" d="M109.767,582.5938 C132.52,582.5938 156.639,582.5938 188.42,582.5938 " fill="none" id="Device-backto-AbstractDeviceFactory" style="stroke:#181818;stroke-width:1.0;stroke-dasharray:7.0,7.0;"/><polygon fill="#181818" points="103.767,582.5938,112.767,586.5938,108.767,582.5938,112.767,578.5938,103.767,582.5938" style="stroke:#181818;stroke-width:1.0;"/><text fill="#000000" font-family="sans-serif" font-size="13" lengthAdjust="spacing" textLength="48" x="122" y="575.6606">creates</text></g><!--reverse link AbstractDeviceFactory to DeviceAFactory--><g id="link_AbstractDeviceFactory_DeviceAFactory"><path d="M340.8127,651.6975 C324.9987,688.5985 311.85,719.2764 301.594,743.2075 " fill="none" id="AbstractDeviceFactory-backto-DeviceAFactory" style="stroke:#181818;stroke-width:1.0;stroke-dasharray:7.0,7.0;"/><polygon fill="none" points="347.903,635.1528,335.2978,649.3341,346.3276,654.0609,347.903,635.1528" style="stroke:#181818;stroke-width:1.0;"/></g><!--reverse link Device to DeviceA--><g id="link_Device_DeviceA"><path d="M68.4655,616.5756 C73.9639,649.7556 84.0295,710.496 89.5037,743.5296 " fill="none" id="Device-backto-DeviceA" style="stroke:#181818;stroke-width:1.0;stroke-dasharray:7.0,7.0;"/><polygon fill="none" points="65.5228,598.8177,62.5463,617.5565,74.3848,615.5947,65.5228,598.8177" style="stroke:#181818;stroke-width:1.0;"/></g><!--reverse link DeviceA to DeviceAFactory--><g id="link_DeviceA_DeviceAFactory"><path codeLine="64" d="M143.557,759.5938 C168.456,759.5938 193.887,759.5938 222.106,759.5938 " fill="none" id="DeviceA-backto-DeviceAFactory" style="stroke:#181818;stroke-width:1.0;stroke-dasharray:7.0,7.0;"/><polygon fill="#181818" points="137.557,759.5938,146.557,763.5938,142.557,759.5938,146.557,755.5938,137.557,759.5938" style="stroke:#181818;stroke-width:1.0;"/><text fill="#000000" font-family="sans-serif" font-size="13" lengthAdjust="spacing" textLength="48" x="156" y="752.6606">creates</text></g><!--link CLI to AbstractDeviceFactory--><g id="link_CLI_AbstractDeviceFactory"><path codeLine="67" d="M370,405.7228 C370,441.4798 370,486.1658 370,523.9458 " fill="none" id="CLI-to-AbstractDeviceFactory" style="stroke:#181818;stroke-width:1.0;stroke-dasharray:7.0,7.0;"/><polygon fill="#181818" points="370,529.9458,374,520.9458,370,524.9458,366,520.9458,370,529.9458" style="stroke:#181818;stroke-width:1.0;"/><text fill="#000000" font-family="sans-serif" font-size="13" lengthAdjust="spacing" textLength="46" x="371" y="450.6606">&#171;uses&#187;</text></g><!--SRC=[VLJ1Zfim4BtdA-QOj5e-W4qZqP9gaRRfTiDgzr09EMIIe0L3RTCqglBlDJ0Ocw1omVRCctb-VhRAL8xmbQMg51TWV0-HGi7q32gcz93BdroLa0fa2c6FlxCKvMnsolO8M5Jg0WKMEnHwhMBfEpiYf7a6VsUWFwb4dIhuyXZHGlDz53MVBypqhYkTTANj09FloQyQfSfAFky7FloWqM8O1boUKRJ8wwpzyLApLMK5vQ5fRueUE8pwMSoQBqS51vBZ4uHj4idZ-npFyyMzaty-PLf0GdWd9XEEVzJ0Uro_xz4dw2Oz-8Xg3BwVnB9sknevgT04gEyWTOSEFEz-ezphZHITIXR9JhsGn7FX0bKjE666K5SLjRUQKvbTBQUK0aaVv7LXpZE-L6Zf5g_VOZDvsKHloLCGFvYLrsWJVd_TkelHKnA4uVDwkpLBcvTldzVFPXe6yTfCFC-pxKF6xVdOxXsCg9CoVXmYdQI9qkIT8DNCkBvEMaOaLr7HcsYmqrYjjkEzPKoWhAXoB90hIMLM5ha9-_cmAylSP4nuRBX69kl69-EhDjnIrmy-44zxQvCRWWztRb-ZjHLeVD06QVDBRxgOJpIaRIvwgqYUD6UobopeELXYDbRqffawv-JKkIamTR9zhYRljdTOwqVJQzv9prlzXuiFosKjKQvM_m00]--></g></svg>