<?xml version="1.0" encoding="us-ascii" standalone="no"?><svg xmlns="http://www.w3.org/2000/svg" xmlns:xlink="http://www.w3.org/1999/xlink" contentStyleType="text/css" height="765px" preserveAspectRatio="none" style="width:1069px;height:765px;background:#FFFFFF;" version="1.1" viewBox="0 0 1069 765" width="1069px" zoomAndPan="magnify"><defs/><g><!--cluster TrackingStatus--><g id="cluster_TrackingStatus"><rect fill="none" height="184.72" rx="2.5" ry="2.5" style="stroke:#181818;stroke-width:1.0;" width="648" x="415" y="151"/><text fill="#000000" font-family="sans-serif" font-size="14" font-style="italic" lengthAdjust="spacing" textLength="59" x="709.5" y="165.9951">&#171;Enum&#187;</text><text fill="#000000" font-family="sans-serif" font-size="14" font-weight="bold" lengthAdjust="spacing" textLength="126" x="676" y="182.292">TrackingStatus</text></g><!--class TrackedProject--><g id="elem_TrackedProject"><rect codeLine="29" fill="#F1F1F1" height="56.2969" id="TrackedProject" rx="2.5" ry="2.5" style="stroke:#181818;stroke-width:0.5;" width="232" x="439" y="255.72"/><ellipse cx="495.75" cy="271.72" fill="#F1F1F1" rx="11" ry="11" style="stroke:#181818;stroke-width:1.0;"/><path d="M499.5313,267.6888 C499.5313,267.2513 499.5156,267.1106 499.4219,266.9544 C499.2813,266.72 499,266.5638 498.7031,266.5638 C498.3594,266.5638 498.2188,266.7044 498.0469,267.1263 C497.4531,266.7513 496.7031,266.5638 495.8281,266.5638 C493.7188,266.5638 492.1406,267.8606 492.1406,269.5794 C492.1406,270.5481 492.6719,271.4544 493.5313,271.9388 C494.0781,272.2513 494.625,272.4231 495.7344,272.6106 C496.8906,272.8138 497.1563,272.8763 497.5156,273.0638 C497.8906,273.2669 498.125,273.6106 498.125,273.97 C498.125,274.7044 497.1406,275.2513 495.8906,275.2513 C494.7656,275.2513 493.6875,274.7669 493.5156,274.1575 C493.3906,273.6888 493.3906,273.6888 493.2656,273.5794 C493.1094,273.4231 492.8906,273.3294 492.6563,273.3294 C492.375,273.3294 492.125,273.4544 491.9531,273.6731 C491.8438,273.845 491.7969,274.0325 491.7969,274.4544 L491.7969,275.5794 C491.7969,276.345 492.0781,276.7044 492.6719,276.7044 C492.9375,276.7044 493.0625,276.6419 493.3438,276.2981 C494.1875,276.7356 495.0781,276.9544 496,276.9544 C498.3281,276.9544 499.8906,275.7669 499.8906,274.0013 C499.8906,273.1106 499.5781,272.4231 498.8906,271.8763 C498.3594,271.4544 497.7188,271.2044 496.2344,270.9388 C494.9688,270.7044 494.875,270.6731 494.5469,270.5013 C494.1719,270.3138 493.9063,269.9231 493.9063,269.5638 C493.9063,268.8294 494.7656,268.2669 495.8281,268.2669 C496.8906,268.2669 497.7031,268.7356 497.8594,269.4075 C497.9688,269.9544 497.9688,269.9544 498.0938,270.095 C498.2344,270.22 498.4688,270.3294 498.7031,270.3294 C498.9688,270.3294 499.2188,270.1888 499.3906,269.97 C499.5,269.7981 499.5313,269.6575 499.5313,269.1888 L499.5313,267.6888 Z " fill="#000000"/><text fill="#000000" font-family="sans-serif" font-size="14" lengthAdjust="spacing" textLength="110" x="516.25" y="276.5667">TrackedProject</text><line style="stroke:#181818;stroke-width:0.5;" x1="440" x2="670" y1="287.72" y2="287.72"/><text fill="#000000" font-family="sans-serif" font-size="14" lengthAdjust="spacing" textLength="220" x="445" y="304.7151">last_update: Option&lt;Instant&gt;,</text></g><!--class UntrackedProject--><g id="elem_UntrackedProject"><rect codeLine="33" fill="#F1F1F1" height="32" id="UntrackedProject" rx="2.5" ry="2.5" style="stroke:#181818;stroke-width:0.5;" width="158" x="706" y="267.72"/><ellipse cx="721" cy="283.72" fill="#F1F1F1" rx="11" ry="11" style="stroke:#181818;stroke-width:1.0;"/><path d="M724.7813,279.6888 C724.7813,279.2513 724.7656,279.1106 724.6719,278.9544 C724.5313,278.72 724.25,278.5638 723.9531,278.5638 C723.6094,278.5638 723.4688,278.7044 723.2969,279.1263 C722.7031,278.7513 721.9531,278.5638 721.0781,278.5638 C718.9688,278.5638 717.3906,279.8606 717.3906,281.5794 C717.3906,282.5481 717.9219,283.4544 718.7813,283.9388 C719.3281,284.2513 719.875,284.4231 720.9844,284.6106 C722.1406,284.8138 722.4063,284.8763 722.7656,285.0638 C723.1406,285.2669 723.375,285.6106 723.375,285.97 C723.375,286.7044 722.3906,287.2513 721.1406,287.2513 C720.0156,287.2513 718.9375,286.7669 718.7656,286.1575 C718.6406,285.6888 718.6406,285.6888 718.5156,285.5794 C718.3594,285.4231 718.1406,285.3294 717.9063,285.3294 C717.625,285.3294 717.375,285.4544 717.2031,285.6731 C717.0938,285.845 717.0469,286.0325 717.0469,286.4544 L717.0469,287.5794 C717.0469,288.345 717.3281,288.7044 717.9219,288.7044 C718.1875,288.7044 718.3125,288.6419 718.5938,288.2981 C719.4375,288.7356 720.3281,288.9544 721.25,288.9544 C723.5781,288.9544 725.1406,287.7669 725.1406,286.0013 C725.1406,285.1106 724.8281,284.4231 724.1406,283.8763 C723.6094,283.4544 722.9688,283.2044 721.4844,282.9388 C720.2188,282.7044 720.125,282.6731 719.7969,282.5013 C719.4219,282.3138 719.1563,281.9231 719.1563,281.5638 C719.1563,280.8294 720.0156,280.2669 721.0781,280.2669 C722.1406,280.2669 722.9531,280.7356 723.1094,281.4075 C723.2188,281.9544 723.2188,281.9544 723.3438,282.095 C723.4844,282.22 723.7188,282.3294 723.9531,282.3294 C724.2188,282.3294 724.4688,282.1888 724.6406,281.97 C724.75,281.7981 724.7813,281.6575 724.7813,281.1888 L724.7813,279.6888 Z " fill="#000000"/><text fill="#000000" font-family="sans-serif" font-size="14" lengthAdjust="spacing" textLength="126" x="735" y="288.5667">UntrackedProject</text></g><!--class IgnoredProject--><g id="elem_IgnoredProject"><rect codeLine="34" fill="#F1F1F1" height="32" id="IgnoredProject" rx="2.5" ry="2.5" style="stroke:#181818;stroke-width:0.5;" width="139" x="899.5" y="267.72"/><ellipse cx="914.5" cy="283.72" fill="#F1F1F1" rx="11" ry="11" style="stroke:#181818;stroke-width:1.0;"/><path d="M918.2813,279.6888 C918.2813,279.2513 918.2656,279.1106 918.1719,278.9544 C918.0313,278.72 917.75,278.5638 917.4531,278.5638 C917.1094,278.5638 916.9688,278.7044 916.7969,279.1263 C916.2031,278.7513 915.4531,278.5638 914.5781,278.5638 C912.4688,278.5638 910.8906,279.8606 910.8906,281.5794 C910.8906,282.5481 911.4219,283.4544 912.2813,283.9388 C912.8281,284.2513 913.375,284.4231 914.4844,284.6106 C915.6406,284.8138 915.9063,284.8763 916.2656,285.0638 C916.6406,285.2669 916.875,285.6106 916.875,285.97 C916.875,286.7044 915.8906,287.2513 914.6406,287.2513 C913.5156,287.2513 912.4375,286.7669 912.2656,286.1575 C912.1406,285.6888 912.1406,285.6888 912.0156,285.5794 C911.8594,285.4231 911.6406,285.3294 911.4063,285.3294 C911.125,285.3294 910.875,285.4544 910.7031,285.6731 C910.5938,285.845 910.5469,286.0325 910.5469,286.4544 L910.5469,287.5794 C910.5469,288.345 910.8281,288.7044 911.4219,288.7044 C911.6875,288.7044 911.8125,288.6419 912.0938,288.2981 C912.9375,288.7356 913.8281,288.9544 914.75,288.9544 C917.0781,288.9544 918.6406,287.7669 918.6406,286.0013 C918.6406,285.1106 918.3281,284.4231 917.6406,283.8763 C917.1094,283.4544 916.4688,283.2044 914.9844,282.9388 C913.7188,282.7044 913.625,282.6731 913.2969,282.5013 C912.9219,282.3138 912.6563,281.9231 912.6563,281.5638 C912.6563,280.8294 913.5156,280.2669 914.5781,280.2669 C915.6406,280.2669 916.4531,280.7356 916.6094,281.4075 C916.7188,281.9544 916.7188,281.9544 916.8438,282.095 C916.9844,282.22 917.2188,282.3294 917.4531,282.3294 C917.7188,282.3294 917.9688,282.1888 918.1406,281.97 C918.25,281.7981 918.2813,281.6575 918.2813,281.1888 L918.2813,279.6888 Z " fill="#000000"/><text fill="#000000" font-family="sans-serif" font-size="14" lengthAdjust="spacing" textLength="107" x="928.5" y="288.5667">IgnoredProject</text></g><!--class SecurityLevel--><g id="elem_SecurityLevel"><rect codeLine="6" fill="#F1F1F1" height="154.0781" id="SecurityLevel" rx="2.5" ry="2.5" style="stroke:#181818;stroke-width:0.5;" width="224" x="523" y="604.72"/><ellipse cx="582.25" cy="620.72" fill="#EB937F" rx="11" ry="11" style="stroke:#181818;stroke-width:1.0;"/><path d="M581.0469,621.595 L582.5,621.595 L582.5,621.7044 C582.5,622.1106 582.5313,622.2669 582.6094,622.4231 C582.7656,622.6731 583.0469,622.8294 583.3438,622.8294 C583.5938,622.8294 583.8594,622.6888 584.0156,622.47 C584.1406,622.3138 584.1719,622.1575 584.1719,621.7044 L584.1719,619.7825 C584.1719,619.6263 584.1719,619.5794 584.1563,619.4231 C584.0938,618.9544 583.7813,618.6419 583.3281,618.6419 C583.0781,618.6419 582.8125,618.7825 582.6406,619.0013 C582.5313,619.1731 582.5,619.3294 582.5,619.7825 L582.5,619.9075 L581.0469,619.9075 L581.0469,617.5013 L585.0313,617.5013 L585.0313,618.3606 C585.0313,618.7669 585.0625,618.9388 585.1406,619.095 C585.3125,619.345 585.5938,619.5013 585.875,619.5013 C586.1406,619.5013 586.4063,619.3606 586.5781,619.1419 C586.6875,618.97 586.7188,618.8294 586.7188,618.3606 L586.7188,615.8138 L579.0938,615.8138 C578.6563,615.8138 578.5313,615.8294 578.375,615.9231 C578.125,616.0794 577.9688,616.3763 577.9688,616.6575 C577.9688,616.9388 578.1094,617.1888 578.3281,617.3606 C578.4844,617.47 578.6719,617.5013 579.0938,617.5013 L579.3438,617.5013 L579.3438,624.0169 L579.0938,624.0169 C578.6875,624.0169 578.5313,624.0325 578.375,624.1419 C578.125,624.3138 577.9688,624.5794 577.9688,624.8763 C577.9688,625.1419 578.1094,625.3919 578.3281,625.5481 C578.4688,625.6731 578.7031,625.72 579.0938,625.72 L587.0938,625.72 L587.0938,623.1419 C587.0938,622.7044 587.0625,622.5638 586.9844,622.4075 C586.8125,622.1575 586.5313,622.0013 586.25,622.0013 C585.9844,622.0013 585.7188,622.1106 585.5469,622.3606 C585.4375,622.5169 585.4063,622.6575 585.4063,623.1419 L585.4063,624.0169 L581.0469,624.0169 L581.0469,621.595 Z " fill="#000000"/><text fill="#000000" font-family="sans-serif" font-size="14" lengthAdjust="spacing" textLength="97" x="602.75" y="625.5667">SecurityLevel</text><line style="stroke:#181818;stroke-width:0.5;" x1="524" x2="746" y1="636.72" y2="636.72"/><text fill="#000000" font-family="sans-serif" font-size="14" lengthAdjust="spacing" textLength="108" x="529" y="653.7151">NetworkPublic,</text><text fill="#000000" font-family="sans-serif" font-size="14" lengthAdjust="spacing" textLength="163" x="529" y="670.012">NetworkUnreferenced,</text><text fill="#000000" font-family="sans-serif" font-size="14" lengthAdjust="spacing" textLength="212" x="529" y="686.3089">NetworkUntrustedRestricted,</text><text fill="#000000" font-family="sans-serif" font-size="14" lengthAdjust="spacing" textLength="196" x="529" y="702.6057">NetworkTrustedRestricted,</text><text fill="#000000" font-family="sans-serif" font-size="14" lengthAdjust="spacing" textLength="102" x="529" y="718.9026">NetworkLocal,</text><text fill="#000000" font-family="sans-serif" font-size="14" lengthAdjust="spacing" textLength="41" x="529" y="735.1995">Local,</text><text fill="#000000" font-family="sans-serif" font-size="14" lengthAdjust="spacing" textLength="128" x="529" y="751.4964">LocalMaxSecurity,</text></g><!--class BackupRequirementClass--><g id="elem_BackupRequirementClass"><rect codeLine="16" fill="#F1F1F1" height="88.8906" id="BackupRequirementClass" rx="2.5" ry="2.5" style="stroke:#181818;stroke-width:0.5;" width="215" x="847.5" y="422.72"/><ellipse cx="862.5" cy="438.72" fill="#F1F1F1" rx="11" ry="11" style="stroke:#181818;stroke-width:1.0;"/><path d="M866.2813,434.6888 C866.2813,434.2513 866.2656,434.1106 866.1719,433.9544 C866.0313,433.72 865.75,433.5638 865.4531,433.5638 C865.1094,433.5638 864.9688,433.7044 864.7969,434.1263 C864.2031,433.7513 863.4531,433.5638 862.5781,433.5638 C860.4688,433.5638 858.8906,434.8606 858.8906,436.5794 C858.8906,437.5481 859.4219,438.4544 860.2813,438.9388 C860.8281,439.2513 861.375,439.4231 862.4844,439.6106 C863.6406,439.8138 863.9063,439.8763 864.2656,440.0638 C864.6406,440.2669 864.875,440.6106 864.875,440.97 C864.875,441.7044 863.8906,442.2513 862.6406,442.2513 C861.5156,442.2513 860.4375,441.7669 860.2656,441.1575 C860.1406,440.6888 860.1406,440.6888 860.0156,440.5794 C859.8594,440.4231 859.6406,440.3294 859.4063,440.3294 C859.125,440.3294 858.875,440.4544 858.7031,440.6731 C858.5938,440.845 858.5469,441.0325 858.5469,441.4544 L858.5469,442.5794 C858.5469,443.345 858.8281,443.7044 859.4219,443.7044 C859.6875,443.7044 859.8125,443.6419 860.0938,443.2981 C860.9375,443.7356 861.8281,443.9544 862.75,443.9544 C865.0781,443.9544 866.6406,442.7669 866.6406,441.0013 C866.6406,440.1106 866.3281,439.4231 865.6406,438.8763 C865.1094,438.4544 864.4688,438.2044 862.9844,437.9388 C861.7188,437.7044 861.625,437.6731 861.2969,437.5013 C860.9219,437.3138 860.6563,436.9231 860.6563,436.5638 C860.6563,435.8294 861.5156,435.2669 862.5781,435.2669 C863.6406,435.2669 864.4531,435.7356 864.6094,436.4075 C864.7188,436.9544 864.7188,436.9544 864.8438,437.095 C864.9844,437.22 865.2188,437.3294 865.4531,437.3294 C865.7188,437.3294 865.9688,437.1888 866.1406,436.97 C866.25,436.7981 866.2813,436.6575 866.2813,436.1888 L866.2813,434.6888 Z " fill="#000000"/><text fill="#000000" font-family="sans-serif" font-size="14" lengthAdjust="spacing" textLength="183" x="876.5" y="443.5667">BackupRequirementClass</text><line style="stroke:#181818;stroke-width:0.5;" x1="848.5" x2="1061.5" y1="454.72" y2="454.72"/><text fill="#000000" font-family="sans-serif" font-size="14" lengthAdjust="spacing" textLength="166" x="853.5" y="471.7151">target_copies: u32 = 3,</text><text fill="#000000" font-family="sans-serif" font-size="14" lengthAdjust="spacing" textLength="183" x="853.5" y="488.012">target_locations: u32 = 2,</text><text fill="#000000" font-family="sans-serif" font-size="14" lengthAdjust="spacing" textLength="97" x="853.5" y="504.3089">name: String,</text></g><!--class Project--><g id="elem_Project"><rect codeLine="23" fill="#F1F1F1" height="72.5938" id="Project" rx="2.5" ry="2.5" style="stroke:#181818;stroke-width:0.5;" width="119" x="725.5" y="7"/><ellipse cx="756.25" cy="23" fill="#F1F1F1" rx="11" ry="11" style="stroke:#181818;stroke-width:1.0;"/><path d="M760.0313,18.9688 C760.0313,18.5313 760.0156,18.3906 759.9219,18.2344 C759.7813,18 759.5,17.8438 759.2031,17.8438 C758.8594,17.8438 758.7188,17.9844 758.5469,18.4063 C757.9531,18.0313 757.2031,17.8438 756.3281,17.8438 C754.2188,17.8438 752.6406,19.1406 752.6406,20.8594 C752.6406,21.8281 753.1719,22.7344 754.0313,23.2188 C754.5781,23.5313 755.125,23.7031 756.2344,23.8906 C757.3906,24.0938 757.6563,24.1563 758.0156,24.3438 C758.3906,24.5469 758.625,24.8906 758.625,25.25 C758.625,25.9844 757.6406,26.5313 756.3906,26.5313 C755.2656,26.5313 754.1875,26.0469 754.0156,25.4375 C753.8906,24.9688 753.8906,24.9688 753.7656,24.8594 C753.6094,24.7031 753.3906,24.6094 753.1563,24.6094 C752.875,24.6094 752.625,24.7344 752.4531,24.9531 C752.3438,25.125 752.2969,25.3125 752.2969,25.7344 L752.2969,26.8594 C752.2969,27.625 752.5781,27.9844 753.1719,27.9844 C753.4375,27.9844 753.5625,27.9219 753.8438,27.5781 C754.6875,28.0156 755.5781,28.2344 756.5,28.2344 C758.8281,28.2344 760.3906,27.0469 760.3906,25.2813 C760.3906,24.3906 760.0781,23.7031 759.3906,23.1563 C758.8594,22.7344 758.2188,22.4844 756.7344,22.2188 C755.4688,21.9844 755.375,21.9531 755.0469,21.7813 C754.6719,21.5938 754.4063,21.2031 754.4063,20.8438 C754.4063,20.1094 755.2656,19.5469 756.3281,19.5469 C757.3906,19.5469 758.2031,20.0156 758.3594,20.6875 C758.4688,21.2344 758.4688,21.2344 758.5938,21.375 C758.7344,21.5 758.9688,21.6094 759.2031,21.6094 C759.4688,21.6094 759.7188,21.4688 759.8906,21.25 C760,21.0781 760.0313,20.9375 760.0313,20.4688 L760.0313,18.9688 Z " fill="#000000"/><text fill="#000000" font-family="sans-serif" font-size="14" lengthAdjust="spacing" textLength="52" x="773.75" y="27.8467">Project</text><line style="stroke:#181818;stroke-width:0.5;" x1="726.5" x2="843.5" y1="39" y2="39"/><text fill="#000000" font-family="sans-serif" font-size="14" lengthAdjust="spacing" textLength="89" x="731.5" y="55.9951">name:String</text><text fill="#000000" font-family="sans-serif" font-size="14" lengthAdjust="spacing" textLength="107" x="731.5" y="72.292">location:String</text></g><!--class Device--><g id="elem_Device"><rect codeLine="37" fill="#F1F1F1" height="121.4844" id="Device" rx="2.5" ry="2.5" style="stroke:#181818;stroke-width:0.5;" width="278" x="7" y="406.72"/><ellipse cx="117.25" cy="422.72" fill="#F1F1F1" rx="11" ry="11" style="stroke:#181818;stroke-width:1.0;"/><path d="M121.0313,418.6888 C121.0313,418.2513 121.0156,418.1106 120.9219,417.9544 C120.7813,417.72 120.5,417.5638 120.2031,417.5638 C119.8594,417.5638 119.7188,417.7044 119.5469,418.1263 C118.9531,417.7513 118.2031,417.5638 117.3281,417.5638 C115.2188,417.5638 113.6406,418.8606 113.6406,420.5794 C113.6406,421.5481 114.1719,422.4544 115.0313,422.9388 C115.5781,423.2513 116.125,423.4231 117.2344,423.6106 C118.3906,423.8138 118.6563,423.8763 119.0156,424.0638 C119.3906,424.2669 119.625,424.6106 119.625,424.97 C119.625,425.7044 118.6406,426.2513 117.3906,426.2513 C116.2656,426.2513 115.1875,425.7669 115.0156,425.1575 C114.8906,424.6888 114.8906,424.6888 114.7656,424.5794 C114.6094,424.4231 114.3906,424.3294 114.1563,424.3294 C113.875,424.3294 113.625,424.4544 113.4531,424.6731 C113.3438,424.845 113.2969,425.0325 113.2969,425.4544 L113.2969,426.5794 C113.2969,427.345 113.5781,427.7044 114.1719,427.7044 C114.4375,427.7044 114.5625,427.6419 114.8438,427.2981 C115.6875,427.7356 116.5781,427.9544 117.5,427.9544 C119.8281,427.9544 121.3906,426.7669 121.3906,425.0013 C121.3906,424.1106 121.0781,423.4231 120.3906,422.8763 C119.8594,422.4544 119.2188,422.2044 117.7344,421.9388 C116.4688,421.7044 116.375,421.6731 116.0469,421.5013 C115.6719,421.3138 115.4063,420.9231 115.4063,420.5638 C115.4063,419.8294 116.2656,419.2669 117.3281,419.2669 C118.3906,419.2669 119.2031,419.7356 119.3594,420.4075 C119.4688,420.9544 119.4688,420.9544 119.5938,421.095 C119.7344,421.22 119.9688,421.3294 120.2031,421.3294 C120.4688,421.3294 120.7188,421.1888 120.8906,420.97 C121,420.7981 121.0313,420.6575 121.0313,420.1888 L121.0313,418.6888 Z " fill="#000000"/><text fill="#000000" font-family="sans-serif" font-size="14" lengthAdjust="spacing" textLength="49" x="137.75" y="427.5667">Device</text><line style="stroke:#181818;stroke-width:0.5;" x1="8" x2="284" y1="438.72" y2="438.72"/><text fill="#000000" font-family="sans-serif" font-size="14" lengthAdjust="spacing" textLength="89" x="13" y="455.7151">name:String</text><text fill="#000000" font-family="sans-serif" font-size="14" lengthAdjust="spacing" textLength="107" x="13" y="472.012">location:String</text><text fill="#000000" font-family="sans-serif" font-size="14" lengthAdjust="spacing" textLength="188" x="13" y="488.3089">device_type_name: String</text><text fill="#000000" font-family="sans-serif" font-size="14" lengthAdjust="spacing" textLength="246" x="13" y="504.6057">last_connection: Option&lt;Instant&gt;</text><text fill="#000000" font-family="sans-serif" font-size="14" lengthAdjust="spacing" textLength="266" x="13" y="520.9026">last_disconnection: Option&lt;Instant&gt;</text></g><!--class ProjectCopy--><g id="elem_ProjectCopy"><rect codeLine="46" fill="#F1F1F1" height="56.2969" id="ProjectCopy" rx="2.5" ry="2.5" style="stroke:#181818;stroke-width:0.5;" width="234" x="438" y="439.22"/><ellipse cx="506.25" cy="455.22" fill="#F1F1F1" rx="11" ry="11" style="stroke:#181818;stroke-width:1.0;"/><path d="M510.0313,451.1888 C510.0313,450.7513 510.0156,450.6106 509.9219,450.4544 C509.7813,450.22 509.5,450.0638 509.2031,450.0638 C508.8594,450.0638 508.7188,450.2044 508.5469,450.6263 C507.9531,450.2513 507.2031,450.0638 506.3281,450.0638 C504.2188,450.0638 502.6406,451.3606 502.6406,453.0794 C502.6406,454.0481 503.1719,454.9544 504.0313,455.4388 C504.5781,455.7513 505.125,455.9231 506.2344,456.1106 C507.3906,456.3138 507.6563,456.3763 508.0156,456.5638 C508.3906,456.7669 508.625,457.1106 508.625,457.47 C508.625,458.2044 507.6406,458.7513 506.3906,458.7513 C505.2656,458.7513 504.1875,458.2669 504.0156,457.6575 C503.8906,457.1888 503.8906,457.1888 503.7656,457.0794 C503.6094,456.9231 503.3906,456.8294 503.1563,456.8294 C502.875,456.8294 502.625,456.9544 502.4531,457.1731 C502.3438,457.345 502.2969,457.5325 502.2969,457.9544 L502.2969,459.0794 C502.2969,459.845 502.5781,460.2044 503.1719,460.2044 C503.4375,460.2044 503.5625,460.1419 503.8438,459.7981 C504.6875,460.2356 505.5781,460.4544 506.5,460.4544 C508.8281,460.4544 510.3906,459.2669 510.3906,457.5013 C510.3906,456.6106 510.0781,455.9231 509.3906,455.3763 C508.8594,454.9544 508.2188,454.7044 506.7344,454.4388 C505.4688,454.2044 505.375,454.1731 505.0469,454.0013 C504.6719,453.8138 504.4063,453.4231 504.4063,453.0638 C504.4063,452.3294 505.2656,451.7669 506.3281,451.7669 C507.3906,451.7669 508.2031,452.2356 508.3594,452.9075 C508.4688,453.4544 508.4688,453.4544 508.5938,453.595 C508.7344,453.72 508.9688,453.8294 509.2031,453.8294 C509.4688,453.8294 509.7188,453.6888 509.8906,453.47 C510,453.2981 510.0313,453.1575 510.0313,452.6888 L510.0313,451.1888 Z " fill="#000000"/><text fill="#000000" font-family="sans-serif" font-size="14" lengthAdjust="spacing" textLength="89" x="526.75" y="460.0667">ProjectCopy</text><line style="stroke:#181818;stroke-width:0.5;" x1="439" x2="671" y1="471.22" y2="471.22"/><text fill="#000000" font-family="sans-serif" font-size="14" lengthAdjust="spacing" textLength="222" x="444" y="488.2151">last_backup: Option&lt;Instant&gt;,</text></g><!--reverse link Project to TrackingStatus--><g id="link_Project_TrackingStatus"><path codeLine="50" d="M785,92.156 C785,102.9935 785,103.3528 785,115.8286 C785,122.0665 785,128.3335 785,134.4539 C785,137.5141 785,140.5377 785,143.5027 C785,144.9852 785,146.453 785,147.9035 C785,148.6287 785,149.3496 785,150.0657 C785,150.2448 785,150.4235 785,150.602 " fill="none" id="Project-backto-TrackingStatus" style="stroke:#181818;stroke-width:1.0;"/><polygon fill="#181818" points="785,80.156,781,86.156,785,92.156,789,86.156,785,80.156" style="stroke:#181818;stroke-width:1.0;"/><text fill="#000000" font-family="sans-serif" font-size="13" lengthAdjust="spacing" textLength="98" x="786" y="123.0669">tracking_status</text></g><!--link TrackingStatus to TrackedProject--><!--link TrackingStatus to UntrackedProject--><!--link TrackingStatus to IgnoredProject--><!--reverse link TrackedProject to ProjectCopy--><g id="link_TrackedProject_ProjectCopy"><path codeLine="55" d="M555,323.892 C555,358.208 555,404.896 555,439.159 " fill="none" id="TrackedProject-backto-ProjectCopy" style="stroke:#181818;stroke-width:1.0;"/><polygon fill="#181818" points="555,311.892,551,317.892,555,323.892,559,317.892,555,311.892" style="stroke:#181818;stroke-width:1.0;"/><text fill="#000000" font-family="sans-serif" font-size="13" lengthAdjust="spacing" textLength="94" x="556" y="372.7869">current_copies</text></g><!--reverse link ProjectCopy to BackupRequirementClass--><g id="link_ProjectCopy_BackupRequirementClass"><path codeLine="56" d="M684.041,467.22 C739.491,467.22 793.281,467.22 847.463,467.22 " fill="none" id="ProjectCopy-backto-BackupRequirementClass" style="stroke:#181818;stroke-width:1.0;"/><polygon fill="none" points="672.041,467.22,678.041,471.22,684.041,467.22,678.041,463.22,672.041,467.22" style="stroke:#181818;stroke-width:1.0;"/><text fill="#000000" font-family="sans-serif" font-size="13" lengthAdjust="spacing" textLength="139" x="690.25" y="460.2869">backup_requirements</text></g><!--link Device to ProjectCopy--><g id="link_Device_ProjectCopy"><path codeLine="57" d="M285.039,467.22 C334.714,467.22 378.149,467.22 425.799,467.22 " fill="none" id="Device-to-ProjectCopy" style="stroke:#181818;stroke-width:1.0;"/><polygon fill="none" points="437.799,467.22,431.799,463.22,425.799,467.22,431.799,471.22,437.799,467.22" style="stroke:#181818;stroke-width:1.0;"/><text fill="#000000" font-family="sans-serif" font-size="13" lengthAdjust="spacing" textLength="116" x="303.5" y="460.2869">secondary_device</text></g><!--reverse link Device to SecurityLevel--><g id="link_Device_SecurityLevel"><path codeLine="59" d="M294.1948,532.6196 C369.7688,565.4606 451.4,600.935 522.642,631.894 " fill="none" id="Device-backto-SecurityLevel" style="stroke:#181818;stroke-width:1.0;"/><polygon fill="none" points="283.189,527.837,287.0977,533.8969,294.1948,532.6196,290.2861,526.5597,283.189,527.837" style="stroke:#181818;stroke-width:1.0;"/><text fill="#000000" font-family="sans-serif" font-size="13" lengthAdjust="spacing" textLength="88" x="391" y="570.7869">security_level</text></g><!--reverse link BackupRequirementClass to SecurityLevel--><g id="link_BackupRequirementClass_SecurityLevel"><path codeLine="60" d="M879.4745,518.3735 C838.5155,545.5735 794.685,574.679 747.089,606.286 " fill="none" id="BackupRequirementClass-backto-SecurityLevel" style="stroke:#181818;stroke-width:1.0;"/><polygon fill="none" points="889.471,511.735,882.2599,511.7221,879.4745,518.3735,886.6856,518.3864,889.471,511.735" style="stroke:#181818;stroke-width:1.0;"/><text fill="#000000" font-family="sans-serif" font-size="13" lengthAdjust="spacing" textLength="119" x="815" y="570.7869">min_security_level</text></g><!--SRC=[ZLJ1Rjim3BthAuXU2WmnCBGx1LaEwtOeq6r5qfs6mL0arjLYIvv4TJE6_ljesKvijmsMKyJtI3uzYZw7i3UsbbvMi95s7x26Ts_5-IXidSP3kCHx0dBWJV50e8r7HSPPyM0q0bOrDL1XjKCVX40RAzYYYjvGSuEFMC9V0VpxWlJR-Vrjt9L6BSQXRzRZFNgq2lKC81y3eTvW86yKpV2xa-YDKxBi8lE_d-MVGU92F0d1-L4HV91g7-iD_efynGejNPKoX5u_ILyWvShL1iCIukK5l8VBnHWhkNPhp06-w60hArp2baNQ8lKR6jvwzvEzx3iaMiTAvw7S4EF4rdbfYnBXxCwpMWvlIL8CPx1QVMBhr-k-MDyXiL1F6wNYCb0UQos9fNsjspwhQnkuEgqxrTnkLAYTnRJKqnY-Bgpp4_1ewqTyD0h_yv9jJAU4d9eQyx5tuY1SEMkxH_XC_96aJJZ5Upw7ArStlSnKO9VUmmlsSEfmqpTP1jDHB87wSnvIG4nnoBxpucYqFxBPU4uGv_QVe4v78SJi2RI2H_TT0ky1xzxmiiNO2vUziXDBwBp9_H48eXzqvgOD0l8OjFHDtWrM34J7KYQVYiHDnxnip-ALZNmXiJ8sdoR_0m00]--></g></svg>